# xmcd
#
# Track frame offsets:
# 180
# 14257
# 26927
# 40228
# 51400
# 64656
# 76137
# 88537
# 100666
# 114247
# 127376
# 140294
# 152645
# 164438
# 176509
# 188342
#
# Disc length: 2681 seconds
#
# Revision: 0
# Processed by: cddbd v1.5.1PL2 Copyright (c) Steve Scherf et al.
# Submitted via: Audion 3.0.2 (http://www.panic.com/audion/)
#
DISCID=ca0a7710
DTITLE=Alejandro Duran - El Rey Del Vallenato
DYEAR=1900
DGENRE=
TTITLE0=Cero Treinta Y Nueve
TTITLE1=Sielva Maria
TTITLE2=Pedazo De Acordeon
TTITLE3=Cachucha Bacana
TTITLE4=Guepaje
TTITLE5=Caminito Verde
TTITLE6=Los Primeros Dias
TTITLE7=La Mujer Y La Primavera
TTITLE8=Altos Del Rosario
TTITLE9=Amor Comprado
TTITLE10=Fidelina
TTITLE11=Palmito
TTITLE12=Pobrecito Corazon
TTITLE13=La Nina Minga
TTITLE14=Mal De Amor
TTITLE15=Los Campanales
EXTD=
EXTT0=
EXTT1=
EXTT2=
EXTT3=
EXTT4=
EXTT5=
EXTT6=
EXTT7=
EXTT8=
EXTT9=
EXTT10=
EXTT11=
EXTT12=
EXTT13=
EXTT14=
EXTT15=
PLAYORDER=
